PathFileType	4	(X/Y/Z)	/Users/itak/Documents/Research/Walk-IL/dataset/trc/00458_00167.trc
DataRate	CameraRate	NumFrames	NumMarkers	Units	OrigDataRate	OrigDataStartFrame	OrigNumFrames
100.000000	100.000000	4	53	mm	100.000000	387	517
Frame#	Time	RPSI			LPSI			L3			STRN			T10			C7			CLAV			RBAK			LBAK			LSHO			LUPA			LAEL			LAOL			LWTS			LWPS			LFRA			LIFD			LHPS			LHTS			RSHO			RUPA			RAEL			RAOL			RWTS			RWPS			RFRA			RIFD			RHTS			RHPS			RBHD			LFHD			RFHD			LBHD			LHIP			RHIP			RASI			LASI			LKNE			LTHI			LANK			LTIP			LTOE			LMT1			LMT5			LHEE			RKNE			RTHI			RANK			RTIP			RTOE			RMT1			RMT5			RHEE			
		X1	Y1	Z1	X2	Y2	Z2	X3	Y3	Z3	X4	Y4	Z4	X5	Y5	Z5	X6	Y6	Z6	X7	Y7	Z7	X8	Y8	Z8	X9	Y9	Z9	X10	Y10	Z10	X11	Y11	Z11	X12	Y12	Z12	X13	Y13	Z13	X14	Y14	Z14	X15	Y15	Z15	X16	Y16	Z16	X17	Y17	Z17	X18	Y18	Z18	X19	Y19	Z19	X20	Y20	Z20	X21	Y21	Z21	X22	Y22	Z22	X23	Y23	Z23	X24	Y24	Z24	X25	Y25	Z25	X26	Y26	Z26	X27	Y27	Z27	X28	Y28	Z28	X29	Y29	Z29	X30	Y30	Z30	X31	Y31	Z31	X32	Y32	Z32	X33	Y33	Z33	X34	Y34	Z34	X35	Y35	Z35	X36	Y36	Z36	X37	Y37	Z37	X38	Y38	Z38	X39	Y39	Z39	X40	Y40	Z40	X41	Y41	Z41	X42	Y42	Z42	X43	Y43	Z43	X44	Y44	Z44	X45	Y45	Z45	X46	Y46	Z46	X47	Y47	Z47	X48	Y48	Z48	X49	Y49	Z49	X50	Y50	Z50	X51	Y51	Z51	X52	Y52	Z52	X53	Y53	Z53	

388	3.87	271.5259704589844	944.792724609375	9.694562911987305	413.4483947753906	944.2783813476562	30.3702507019043	332.5570983886719	1048.213256835938	28.66756439208984	303.4808044433594	1261.2314453125	289.1693420410156	343.12451171875	1170.784423828125	7.481366634368896	322.0657958984375	1441.946533203125	59.29413604736328	311.5971374511719	1372.441772460938	247.7713623046875	238.6236419677734	1320.121215820312	-9.559786796569824	425.3660583496094	1392.705322265625	42.34550476074219	489.9309692382812	1423.912719726562	151.8239898681641	591.5070190429688	1313.216674804688	171.1938934326172	646.55419921875	1113.716918945312	232.1343841552734	594.2597045898438	1075.967651367188	151.18310546875	614.080810546875	927.5223999023438	348.8623352050781	677.4763793945312	912.05322265625	313.2103576660156	662.9608764648438	1034.375854492188	272.67041015625	642.8223876953125	763.39892578125	387.5892944335938	687.1246948242188	838.0255737304688	337.4834899902344	633.6505737304688	847.6277465820312	384.2087707519531	154.5334625244141	1419.7431640625	103.9350738525391	84.50634002685547	1357.721557617188	74.16680908203125	20.43840789794922	1073.6533203125	76.52357482910156	70.48435974121094	1049.663940429688	37.37686157226562	42.30421447753906	889.1128540039062	217.9753265380859	-1.862954378128052	863.5214233398438	145.7399749755859	9.139056205749512	1016.012512207031	87.8077392578125	28.49731063842773	735.708251953125	243.8800811767578	25.21303558349609	795.4794311523438	245.9067077636719	-4.783352375030518	781.380859375	176.9333648681641	226.621337890625	1645.441772460938	137.1788940429688	398.8211975097656	1674.146606445312	248.6174468994141	269.16259765625	1679.996215820312	263.6934204101562	400.8782653808594	1639.42578125	100.1406097412109	506.8054504394531	852.484375	192.0614471435547	110.9257278442383	861.1696166992188	124.4873123168945	166.9546966552734	914.0692138671875	223.2245941162109	416.7604370117188	904.9483032226562	270.6111450195312	440.2823181152344	445.8333435058594	284.2238464355469	465.8464050292969	601.8050537109375	278.8309326171875	427.7982482910156	34.16915130615234	209.7583770751953	447.1100769042969	290.9250183105469	282.435791015625	337.0022583007812	39.72218322753906	437.8553466796875	314.5697631835938	49.25434875488281	359.976806640625	430.8766479492188	36.93635940551758	364.1177368164062	365.9917297363281	42.72040176391602	160.8670959472656	75.12728118896484	506.8759460449219	275.7003173828125	82.91594696044922	742.9992065429688	194.4187469482422	133.3406524658203	180.5773162841797	-12.8080883026123	78.81815338134766	380.4842834472656	201.8577728271484	161.1701965332031	53.09376525878906	161.3592376708984	201.6196136474609	96.96502685546875	119.946044921875	102.0667877197266	96.97460174560547	84.65349578857422	186.3407592773438	221.8900451660156	-56.58672714233398	
389	3.88	271.4580078125	945.5943603515625	13.27294921875	413.4295959472656	945.0199584960938	33.6129150390625	333.3695068359375	1048.979248046875	32.09612274169922	304.1997985839844	1261.748779296875	292.8108215332031	344.4303283691406	1171.295166015625	11.24043083190918	323.4540100097656	1442.516357421875	63.050537109375	312.4037780761719	1372.983764648438	251.4952850341797	240.1108245849609	1320.703369140625	-5.964824199676514	426.8294982910156	1393.18798828125	46.36739349365234	490.9308776855469	1424.419311523438	156.0283813476562	592.6693725585938	1314.138427734375	176.29931640625	648.5757446289062	1115.748291015625	239.3284301757812	596.460693359375	1076.677368164062	158.9030303955078	617.2198486328125	930.9996948242188	358.5856018066406	680.6131591796875	915.5167236328125	323.0624389648438	665.3876342773438	1037.043212890625	280.8964538574219	647.416748046875	767.582763671875	399.3774108886719	690.9541015625	841.97900390625	348.2912902832031	637.5695190429688	851.6921997070312	394.9942626953125	155.8087310791016	1420.444702148438	107.2501220703125	85.77192687988281	1358.511474609375	77.31169891357422	21.05428314208984	1074.552001953125	80.39768981933594	71.04177856445312	1050.071044921875	41.29128646850586	43.00545883178711	892.458251953125	224.8667144775391	-1.222899675369263	865.4544067382812	153.2549285888672	9.641286849975586	1017.081848144531	92.57807159423828	29.66688346862793	739.6166381835938	253.8347015380859	26.31596755981445	799.34033203125	254.5735015869141	-3.791891574859619	783.8565673828125	186.0083923339844	227.4713897705078	1645.849975585938	140.8414154052734	399.5235595703125	1674.948852539062	252.4033355712891	269.8461608886719	1680.501342773438	267.3855590820312	401.7598266601562	1640.173706054688	103.9217987060547	507.0507507324219	852.81103515625	194.5150146484375	111.1816329956055	862.12353515625	128.5417175292969	167.3177642822266	915.0662231445312	227.19580078125	417.3643188476562	905.1841430664062	273.829833984375	440.8389892578125	445.7174682617188	284.3390502929688	466.3876037597656	601.7311401367188	279.5886535644531	427.7549438476562	34.18113708496094	209.7200012207031	447.442138671875	290.8682556152344	282.414306640625	337.0412292480469	39.73511505126953	437.8663024902344	314.6066589355469	49.26818084716797	359.9745788574219	430.8983154296875	36.90966796875	364.1062927246094	365.9307250976562	42.74605560302734	160.8149871826172	76.25887298583984	507.7462463378906	281.5215759277344	83.29971313476562	743.8367309570312	198.1172637939453	131.9168090820312	173.1979522705078	2.179863452911377	79.30845642089844	379.1761169433594	210.8224334716797	158.5480041503906	52.86480331420898	181.5361175537109	199.4602661132812	94.30136108398438	138.3328704833984	100.1415176391602	94.00067901611328	102.7378234863281	185.4009399414062	211.9958343505859	-43.55160522460938	
390	3.89	271.3058471679688	946.3795776367188	16.81533241271973	413.3294372558594	945.6946411132812	36.77529525756836	333.9600830078125	1049.670776367188	35.54192352294922	304.89013671875	1262.22900390625	296.4082336425781	345.5514221191406	1171.762817382812	14.92902946472168	324.7210998535156	1443.041015625	66.73105621337891	313.1783142089844	1373.482177734375	255.1557922363281	241.4329376220703	1321.255004882812	-2.405586719512939	428.1530151367188	1393.621704101562	50.25667190551758	491.8699645996094	1424.837036132812	160.0653991699219	593.7352905273438	1314.91796875	181.1080169677734	650.4788818359375	1117.63232421875	246.0921630859375	598.4054565429688	1077.259521484375	166.274658203125	620.2062377929688	934.5015258789062	367.9820861816406	683.510009765625	918.8925170898438	332.4933166503906	667.6694946289062	1039.57275390625	288.6925048828125	651.8404541015625	771.8984985351562	411.059326171875	694.5387573242188	845.9061889648438	358.7592163085938	641.3466186523438	855.85791015625	405.535400390625	156.9887084960938	1421.1162109375	110.5709762573242	86.90958404541016	1359.265747070312	80.50576782226562	21.53243446350098	1075.453857421875	84.34746551513672	71.38789367675781	1050.505859375	45.21715545654297	43.76408767700195	895.705078125	231.5540771484375	-0.7045500874519348	867.4033813476562	160.66943359375	9.995948791503906	1018.161499023438	97.40125274658203	30.85877227783203	743.446044921875	263.4503784179688	27.49987983703613	803.1011962890625	262.9646911621094	-2.942115545272827	786.3493041992188	194.9065704345703	228.2799682617188	1646.2236328125	144.3894348144531	400.1890563964844	1675.745361328125	256.0463562011719	270.498291015625	1681.015502929688	270.9474792480469	402.5805358886719	1640.849365234375	107.5650405883789	507.2572937011719	853.1196899414062	196.9135437011719	111.3648834228516	863.02978515625	132.5376739501953	167.6268310546875	915.9844970703125	231.1624755859375	417.9202270507812	905.3916625976562	276.9624938964844	441.3420715332031	445.6007690429688	284.4254150390625	466.8985290527344	601.6614379882812	280.3182983398438	427.7118530273438	34.19789886474609	209.6828155517578	447.7455139160156	290.820556640625	282.3777770996094	337.0795593261719	39.74639892578125	437.8776245117188	314.6441345214844	49.28039932250977	359.9748840332031	430.92138671875	36.8810920715332	364.09521484375	365.8599853515625	42.76748275756836	160.7605743408203	77.55467224121094	508.35791015625	286.688232421875	83.60519409179688	744.6328125	201.7780914306641	130.0416107177734	165.3972320556641	17.24837684631348	79.77680206298828	377.6433715820312	219.3805541992188	155.6266784667969	52.57041168212891	201.506591796875	196.9970092773438	91.43472290039062	156.567626953125	97.80471038818359	90.86272430419922	120.8454666137695	183.9535675048828	201.5129547119141	-30.40920066833496	
391	3.9	271.0690612792969	947.1614379882812	20.3361644744873	413.1417846679688	946.3069458007812	39.86583709716797	334.2829895019531	1050.27685546875	39.04646682739258	305.5567626953125	1262.67822265625	299.9616088867188	346.4632568359375	1172.200317382812	18.55035781860352	325.86181640625	1443.528198242188	70.33473968505859	313.9222412109375	1373.9453125	258.7544860839844	242.5794982910156	1321.785278320312	1.117873072624207	429.3348083496094	1394.015502929688	54.01218414306641	492.7443237304688	1425.18212890625	163.9365081787109	594.7005615234375	1315.564331054688	185.6296691894531	652.2572021484375	1119.372436523438	252.4256896972656	600.0973510742188	1077.729858398438	173.2788696289062	623.021240234375	938.0266723632812	377.0255737304688	686.1549682617188	922.1661987304688	341.4715576171875	669.7937622070312	1041.961791992188	296.0491943359375	656.0631713867188	776.35302734375	422.6027526855469	697.855712890625	849.7928466796875	368.8497924804688	644.9391479492188	860.12255859375	415.792724609375	158.0688629150391	1421.77197265625	113.8955078125	87.91940307617188	1359.9970703125	83.74676513671875	21.87930297851562	1076.35888671875	88.37664031982422	71.54827117919922	1050.971069335938	49.16799163818359	44.59756088256836	898.831787109375	237.9835205078125	-0.29106405377388	869.352783203125	167.9335327148438	10.22932147979736	1019.247131347656	102.2603149414062	32.02798080444336	747.1618041992188	272.6846923828125	28.70341682434082	806.7421264648438	271.0602722167969	-2.246104717254639	788.8394165039062	203.5733795166016	229.0469512939453	1646.572998046875	147.8302459716797	400.8212890625	1676.534057617188	259.5564270019531	271.1205444335938	1681.5458984375	274.3862609863281	403.3480529785156	1641.46240234375	111.076545715332	507.4287719726562	853.4035034179688	199.2614288330078	111.4669189453125	863.9088745117188	136.4983367919922	167.8880767822266	916.8282470703125	235.1408996582031	418.4419250488281	905.5732421875	280.0126037597656	441.7800598144531	445.4785461425781	284.5054626464844	467.3600463867188	601.5941772460938	281.05517578125	427.6676330566406	34.21977996826172	209.6458435058594	448.0127868652344	290.7809753417969	282.3438415527344	337.1216735839844	39.75579071044922	437.887939453125	314.6821899414062	49.29113006591797	359.9788818359375	430.9474792480469	36.85254669189453	364.0840148925781	365.7803955078125	42.77985763549805	160.7080383300781	79.00660705566406	508.7181396484375	291.208984375	83.82453918457031	745.406982421875	205.4212036132812	127.7613143920898	157.2470855712891	32.37693405151367	80.22906494140625	375.9378051757812	227.5119018554688	152.4931335449219	52.28913116455078	221.2537994384766	194.3112945556641	88.45028686523438	174.5990905761719	95.11763000488281	87.64326477050781	138.9637603759766	182.0067596435547	190.5388641357422	-17.16129875183105	
